<?xml version="1.0" encoding="utf-8"?>
<!-- Generator: Adobe Illustrator 15.1.0, SVG Export Plug-In . SVG Version: 6.00 Build 0)  -->
<!DOCTYPE svg PUBLIC "-//W3C//DTD SVG 1.1//EN" "http://www.w3.org/Graphics/SVG/1.1/DTD/svg11.dtd">
<svg version="1.1" id="Layer_1" xmlns="http://www.w3.org/2000/svg" xmlns:xlink="http://www.w3.org/1999/xlink" x="0px" y="0px"
	 width="168px" height="15.775px" viewBox="0 0 168 15.775" enable-background="new 0 0 168 15.775" xml:space="preserve">
<rect x="44.195" y="0.099" width="3.641" height="15.442"/>
<g>
	<path d="M112.994,0c-1.12,0-2.033,0.905-2.033,2.013c0,1.118,0.913,2.021,2.033,2.021c1.096,0,2.01-0.903,2.01-2.021
		C115.004,0.905,114.09,0,112.994,0"/>
	<path d="M139.932,4.806h3.663v1.723c0.582-1.1,1.747-2.005,3.532-2.005c2.057,0,3.499,1.296,3.499,4.037v6.979h-3.66V9.299
		c0-1.214-0.474-1.806-1.553-1.806c-1.073,0-1.818,0.654-1.818,2.03v6.018h-3.663V4.806z"/>
	<rect x="133.657" y="0.873" width="4.223" height="14.667"/>
	<path d="M116.828,4.806h3.653v1.723c0.591-1.1,1.753-2.005,3.54-2.005c2.078,0,3.495,1.296,3.495,4.037v6.979h-3.661V9.299
		c0-1.214-0.474-1.806-1.527-1.806c-1.093,0-1.847,0.654-1.847,2.03v6.018h-3.653V4.806z"/>
	<rect x="111.164" y="4.806" width="3.66" height="10.734"/>
	<path d="M109.726,10.051c0-3.851-2.531-5.527-5.445-5.527c-3.239,0-5.813,2.165-5.813,5.618v0.164c0,3.5,2.46,5.469,5.832,5.469
		c3.222,0,5.102-1.365,5.427-3.79h-3.44c-0.147,0.709-0.656,1.276-1.881,1.276c-1.312,0-2.132-0.817-2.22-2.245h7.541V10.051z
		 M102.22,8.954c0.183-1.294,0.951-2.015,2.061-2.015c1.186,0,1.825,0.721,1.878,2.015H102.22z"/>
	<path d="M91.584,12.072V7.315h-1.293V4.806h1.293v-2.23h3.684v2.23h2.115v2.509h-2.115v4.414c0,0.781,0.383,1.13,1.075,1.13
		c0.42,0,0.729-0.054,1.056-0.184v2.787c-0.472,0.128-1.162,0.312-2.041,0.312C92.954,15.775,91.584,14.609,91.584,12.072"/>
	<path d="M79.573,12.13h3.39c0.105,0.785,0.476,1.199,1.51,1.199c0.893,0,1.312-0.343,1.312-0.87c0-0.509-0.509-0.768-1.984-0.966
		c-2.878-0.363-4.081-1.203-4.081-3.445c0-2.377,2.115-3.524,4.59-3.524c2.641,0,4.478,0.905,4.736,3.461H85.71
		c-0.125-0.721-0.526-1.065-1.365-1.065c-0.803,0-1.2,0.345-1.2,0.837c0,0.521,0.492,0.723,1.804,0.885
		c2.968,0.374,4.407,1.15,4.407,3.43c0,2.556-1.894,3.703-4.864,3.703C81.428,15.775,79.664,14.499,79.573,12.13"/>
	<path d="M67.331,0.099h3.661v6.43c0.573-1.099,1.747-2.004,3.525-2.004c2.076,0,3.511,1.296,3.511,4.036v6.979H74.35V9.298
		c0-1.213-0.465-1.806-1.527-1.806c-1.096,0-1.831,0.655-1.831,2.03v6.018h-3.661V0.099z"/>
	<path d="M55.12,10.307v-0.164c0-3.566,2.557-5.618,5.719-5.618c2.623,0,5.035,1.147,5.245,4.409h-3.443
		c-0.162-1.014-0.656-1.557-1.718-1.557c-1.297,0-2.053,0.92-2.053,2.715v0.167c0,1.871,0.711,2.837,2.103,2.837
		c1.033,0,1.751-0.62,1.867-1.785h3.297c-0.099,2.693-1.92,4.464-5.381,4.464C57.561,15.775,55.12,13.917,55.12,10.307"/>
	<path d="M51.979,0c-1.121,0-2.024,0.905-2.024,2.011c0,1.118,0.903,2.023,2.024,2.023c1.105,0,2.01-0.905,2.01-2.023
		C53.989,0.905,53.084,0,51.979,0"/>
	<rect x="50.139" y="4.806" width="3.666" height="10.734"/>
	<path d="M165.987,11.712c-1.117,0-2.029,0.913-2.029,2.034c0,1.095,0.912,2.009,2.029,2.009c1.123,0,2.013-0.914,2.013-2.009
		C168,12.625,167.11,11.712,165.987,11.712"/>
	<path d="M152.08,10.307v-0.164c0-3.566,2.571-5.618,5.721-5.618c2.624,0,5.044,1.147,5.245,4.409h-3.442
		c-0.163-1.014-0.656-1.557-1.735-1.557c-1.29,0-2.034,0.92-2.034,2.715v0.167c0,1.871,0.708,2.837,2.112,2.837
		c1.021,0,1.73-0.62,1.857-1.785h3.294c-0.086,2.693-1.93,4.464-5.391,4.464C154.52,15.775,152.08,13.917,152.08,10.307"/>
	<polygon points="0,0.873 9.899,0.873 9.899,4.133 4.215,4.133 4.215,7.248 8.754,7.248 8.754,10.346 4.215,10.346 4.215,15.541 
		0,15.541 	"/>
	<path d="M10.919,4.806h3.669v2.132c0.674-1.593,1.805-2.295,3.462-2.267v3.414c-2.229-0.053-3.462,0.638-3.462,2.372v5.083h-3.669
		V4.806z"/>
	<path d="M31.719,0.099h3.661v6.43c0.573-1.099,1.753-2.004,3.525-2.004c2.076,0,3.505,1.296,3.505,4.036v6.979h-3.67V9.298
		c0-1.213-0.464-1.806-1.528-1.806c-1.096,0-1.832,0.655-1.832,2.03v6.018h-3.661V0.099z"/>
	<path d="M24.588,4.525c-3.324,0-5.882,2.165-5.882,5.618v0.164c0,3.464,2.558,5.468,5.855,5.468c3.306,0,5.866-2.098,5.866-5.575
		v-0.163C30.427,6.639,27.887,4.525,24.588,4.525 M26.692,10.235c0,1.786-0.736,2.806-2.104,2.806c-1.42,0-2.132-1.002-2.132-2.841
		v-0.163c0-1.805,0.757-2.772,2.132-2.772c1.396,0,2.104,1.013,2.104,2.805V10.235z"/>
</g>
</svg>
