<svg version="1.1" id="Layer_1" xmlns="http://www.w3.org/2000/svg" xmlns:xlink="http://www.w3.org/1999/xlink" x="0px" y="0px" width="25.986px" height="82px" viewBox="0 0 25.986 82" enable-background="new 0 0 25.986 82" xml:space="preserve">
<polygon points="6,75.999 6,73 3,73 3,75.999 0,75.999 0,78.999 3,78.999 3,79 3,82 6,82 6,79 6,78.999 9,78.999 9,75.999 "/>
<rect x="11.002" y="62" width="9" height="9"/>
<rect y="62" width="9" height="9"/>
<rect x="11.002" y="50.998" width="9" height="9"/>
<rect y="50.998" width="9" height="9"/>
<polygon points="10.589,20.888 0,10.445 10.589,0 11.993,1.424 2.848,10.445 11.993,19.464 "/>
<polygon points="15.397,20.888 13.993,19.464 23.138,10.444 13.993,1.424 15.397,0 25.986,10.444 "/>
<polygon points="20.887,38.404 10.444,48.993 0,38.404 1.424,37 10.444,46.145 19.463,37 "/>
<polygon points="20.887,33.596 19.463,35 10.443,25.855 1.424,35 0,33.596 10.443,23.007 "/>
</svg>
