<?xml version="1.0" encoding="utf-8"?>
<!-- Generator: Adobe Illustrator 15.1.0, SVG Export Plug-In . SVG Version: 6.00 Build 0)  -->
<!DOCTYPE svg PUBLIC "-//W3C//DTD SVG 1.1//EN" "http://www.w3.org/Graphics/SVG/1.1/DTD/svg11.dtd">
<svg version="1.1" id="Layer_1" xmlns="http://www.w3.org/2000/svg" xmlns:xlink="http://www.w3.org/1999/xlink" x="0px" y="0px"
	 width="26.75px" height="100.001px" viewBox="0 0 26.75 100.001" enable-background="new 0 0 26.75 100.001" xml:space="preserve">
<polygon points="6,75.999 6,73 3,73 3,75.999 0,75.999 0,78.999 3,78.999 3,79 3,82 6,82 6,79 6,78.999 9,78.999 9,75.999 "/>
<g>
	<rect x="11.002" y="62" width="9" height="9"/>
	<rect y="62" width="9" height="9"/>
	<rect x="11.002" y="50.998" width="9" height="9"/>
	<rect y="50.998" width="9" height="9"/>
</g>
<polygon points="10.589,20.888 0,10.445 10.589,0 11.993,1.424 2.848,10.445 11.993,19.464 "/>
<polygon points="15.397,20.888 13.993,19.464 23.138,10.444 13.993,1.424 15.397,0 25.986,10.444 "/>
<polygon points="20.887,38.404 10.444,48.993 0,38.404 1.424,37 10.444,46.145 19.463,37 "/>
<polygon points="20.887,33.596 19.463,35 10.443,25.855 1.424,35 0,33.596 10.443,23.007 "/>
<path fill="#BBBBBB" d="M20.75,92.667h-2V90h2v-2.333c0-1.89,1.185-3.667,4-3.667c1.13,0,2,0.148,2,0.148l-0.111,2.518h-1.722
	c-1.019,0-1.167,0.556-1.167,1.334v2h3l-0.204,2.667H23.75v7.334h-3V92.667z"/>
<path fill="#BBBBBB" d="M14.981,87.379v0.443c0,4.519-3.436,9.731-9.73,9.731c-1.93,0-3.745-0.425-5.251-1.391
	c0.27,0.039,0.541,0.059,0.811,0.059c1.603,0,3.09-0.695,4.248-1.622c-1.487-0.02-2.762-1.024-3.186-2.375
	c0.212,0.039,0.424,0.059,0.637,0.059c0.31,0,0.618-0.039,0.908-0.116c-1.564-0.309-2.741-1.698-2.741-3.359v-0.039
	c0.463,0.251,0.985,0.405,1.544,0.425c-0.926-0.618-1.525-1.66-1.525-2.839c0-0.636,0.173-1.158,0.463-1.66
	c1.699,2.066,4.209,3.359,7.046,3.514c-0.057-0.251-0.077-0.521-0.077-0.792c0-1.892,1.525-3.417,3.417-3.417
	c0.984,0,1.873,0.425,2.509,1.082c0.772-0.155,1.506-0.443,2.162-0.83c-0.25,0.791-0.792,1.467-1.506,1.892
	c0.695-0.077,1.352-0.271,1.969-0.54C16.217,86.297,15.637,86.896,14.981,87.379"/>
</svg>
